<svg viewBox="-2.4 -2.4 28.80 28.80" xmlns="http://www.w3.org/2000/svg" fill="#0045ff" transform="rotate(0)"><g id="SVGRepo_bgCarrier" stroke-width="0" transform="translate(1.5600000000000005,1.5600000000000005), scale(0.87)"><path transform="translate(-2.4, -2.4), scale(0.8999999999999999)" d="M16,31.672955659071082C20.088271947754862,32.57816985799354,24.697638664800834,30.567619840178892,27.24209067239579,27.242090672395793C29.61457284467725,24.14132137495289,28.732729045401666,19.833336314347406,27.991800847218222,16C27.414571012865707,13.013589047935792,25.507040107634804,10.769577302406624,23.6001578707859,8.399842129214102C21.31048939366133,5.554407932837886,19.630983566050773,1.4912041051401301,16.000000000000004,1.0974581920002642C12.241535276367724,0.6898881499743905,9.09143739018642,3.7512972292115707,6.551024450877215,6.551024450877213C4.1550499855063165,9.1915695486119,1.9924300117029043,12.4676302457856,2.4777504948801123,15.999999999999998C2.9295486491062643,19.28837992691033,6.665516254561428,20.65301018256564,8.833819344496042,23.166180655503954C11.351652250879159,26.084473464977062,12.236805539953103,30.83971924474412,16,31.672955659071082" fill="#f2f5ff" strokewidth="0"></path></g><g id="SVGRepo_tracerCarrier" stroke-linecap="round" stroke-linejoin="round"></g><g id="SVGRepo_iconCarrier"><path d="M8 15H3.5A2.502 2.502 0 0 1 1 12.5v-9A2.502 2.502 0 0 1 3.5 1h9A2.502 2.502 0 0 1 15 3.5V8h-1V3.5A1.502 1.502 0 0 0 12.5 2h-9A1.502 1.502 0 0 0 2 3.5v9A1.502 1.502 0 0 0 3.5 14H8zm-.038-4.811a9.77 9.77 0 0 1-3.766 1.796l-.242-.97a8.816 8.816 0 0 0 3.282-1.532A9.264 9.264 0 0 1 4.888 5H4V4h3.279l-.544-.544.707-.707L8.692 4H12v1h-.914A9.836 9.836 0 0 1 9.78 8.152a3.853 3.853 0 0 0-1.82 2.037zm.032-1.383A8.167 8.167 0 0 0 10.058 5H5.922a8.18 8.18 0 0 0 2.072 3.806zM23 20.447v-8.894A2.525 2.525 0 0 0 20.484 9h-8.931A2.556 2.556 0 0 0 9 11.553v8.894A2.556 2.556 0 0 0 11.553 23h8.894A2.556 2.556 0 0 0 23 20.447zM20.484 10A1.517 1.517 0 0 1 22 11.516v8.968A1.517 1.517 0 0 1 20.484 22h-8.968A1.517 1.517 0 0 1 10 20.484v-8.968A1.517 1.517 0 0 1 11.516 10zm-2.086 8h-4.796l-1.159 2.23-.886-.46L16 11.215l4.443 8.555-.886.46zm-.52-1L16 13.385 14.122 17z"></path><path fill="none" d="M0 0h24v24H0z"></path></g></svg>