<svg xmlns="http://www.w3.org/2000/svg" version="1.1" xmlns:xlink="http://www.w3.org/1999/xlink" xmlns:svgjs="http://svgjs.dev/svgjs" width="1440" height="560" preserveAspectRatio="none" viewBox="0 0 1440 560"><g mask="url(&quot;#SvgjsMask1448&quot;)" fill="none"><rect width="1440" height="560" x="0" y="0" fill="url(&quot;#SvgjsLinearGradient1449&quot;)"></rect><path d="M-52.46 346.52L-52.46 346.52" stroke="rgba(197, 197, 197, 1)" stroke-width="1.5"></path><path d="M-52.46 346.52L72.85 407.49" stroke="rgba(197, 197, 197, 1)" stroke-width="1.5"></path><path d="M-52.46 346.52L-111.64 492.13" stroke="rgba(197, 197, 197, 1)" stroke-width="1.5"></path><path d="M-52.46 346.52L67.01 552.83" stroke="rgba(197, 197, 197, 1)" stroke-width="1.5"></path><path d="M-52.46 346.52L249.63 342.48" stroke="rgba(197, 197, 197, 1)" stroke-width="1.5"></path><path d="M-52.46 346.52L-53.43 686.33" stroke="rgba(197, 197, 197, 1)" stroke-width="1.5"></path><path d="M-111.64 492.13L-111.64 492.13" stroke="rgba(197, 197, 197, 1)" stroke-width="1.5"></path><path d="M-111.64 492.13L67.01 552.83" stroke="rgba(197, 197, 197, 1)" stroke-width="1.5"></path><path d="M-111.64 492.13L-53.43 686.33" stroke="rgba(197, 197, 197, 1)" stroke-width="1.5"></path><path d="M-111.64 492.13L72.85 407.49" stroke="rgba(197, 197, 197, 1)" stroke-width="1.5"></path><path d="M-111.64 492.13L88.68 668.78" stroke="rgba(197, 197, 197, 1)" stroke-width="1.5"></path><path d="M-111.64 492.13L253.97 515.91" stroke="rgba(197, 197, 197, 1)" stroke-width="1.5"></path><path d="M-53.43 686.33L-53.43 686.33" stroke="rgba(197, 197, 197, 1)" stroke-width="1.5"></path><path d="M-53.43 686.33L88.68 668.78" stroke="rgba(197, 197, 197, 1)" stroke-width="1.5"></path><path d="M-53.43 686.33L67.01 552.83" stroke="rgba(197, 197, 197, 1)" stroke-width="1.5"></path><path d="M72.85 407.49L72.85 407.49" stroke="rgba(197, 197, 197, 1)" stroke-width="1.5"></path><path d="M72.85 407.49L67.01 552.83" stroke="rgba(197, 197, 197, 1)" stroke-width="1.5"></path><path d="M72.85 407.49L249.63 342.48" stroke="rgba(197, 197, 197, 1)" stroke-width="1.5"></path><path d="M72.85 407.49L253.97 515.91" stroke="rgba(197, 197, 197, 1)" stroke-width="1.5"></path><path d="M67.01 552.83L67.01 552.83" stroke="rgba(197, 197, 197, 1)" stroke-width="1.5"></path><path d="M67.01 552.83L88.68 668.78" stroke="rgba(197, 197, 197, 1)" stroke-width="1.5"></path><path d="M88.68 668.78L88.68 668.78" stroke="rgba(197, 197, 197, 1)" stroke-width="1.5"></path><path d="M88.68 668.78L208.39 708.07" stroke="rgba(197, 197, 197, 1)" stroke-width="1.5"></path><path d="M88.68 668.78L253.97 515.91" stroke="rgba(197, 197, 197, 1)" stroke-width="1.5"></path><path d="M249.63 342.48L249.63 342.48" stroke="rgba(197, 197, 197, 1)" stroke-width="1.5"></path><path d="M249.63 342.48L342.82 375.07" stroke="rgba(197, 197, 197, 1)" stroke-width="1.5"></path><path d="M249.63 342.48L253.97 515.91" stroke="rgba(197, 197, 197, 1)" stroke-width="1.5"></path><path d="M253.97 515.91L253.97 515.91" stroke="rgba(197, 197, 197, 1)" stroke-width="1.5"></path><path d="M253.97 515.91L373.63 494.5" stroke="rgba(197, 197, 197, 1)" stroke-width="1.5"></path><path d="M253.97 515.91L342.82 375.07" stroke="rgba(197, 197, 197, 1)" stroke-width="1.5"></path><path d="M253.97 515.91L67.01 552.83" stroke="rgba(197, 197, 197, 1)" stroke-width="1.5"></path><path d="M253.97 515.91L208.39 708.07" stroke="rgba(197, 197, 197, 1)" stroke-width="1.5"></path><path d="M208.39 708.07L208.39 708.07" stroke="rgba(197, 197, 197, 1)" stroke-width="1.5"></path><path d="M208.39 708.07L374.74 700.85" stroke="rgba(197, 197, 197, 1)" stroke-width="1.5"></path><path d="M342.82 375.07L342.82 375.07" stroke="rgba(197, 197, 197, 1)" stroke-width="1.5"></path><path d="M342.82 375.07L373.63 494.5" stroke="rgba(197, 197, 197, 1)" stroke-width="1.5"></path><path d="M342.82 375.07L72.85 407.49" stroke="rgba(197, 197, 197, 1)" stroke-width="1.5"></path><path d="M342.82 375.07L545.01 562.06" stroke="rgba(197, 197, 197, 1)" stroke-width="1.5"></path><path d="M342.82 375.07L648 392.81" stroke="rgba(197, 197, 197, 1)" stroke-width="1.5"></path><path d="M373.63 494.5L373.63 494.5" stroke="rgba(197, 197, 197, 1)" stroke-width="1.5"></path><path d="M373.63 494.5L545.01 562.06" stroke="rgba(197, 197, 197, 1)" stroke-width="1.5"></path><path d="M374.74 700.85L374.74 700.85" stroke="rgba(197, 197, 197, 1)" stroke-width="1.5"></path><path d="M374.74 700.85L528.05 704.43" stroke="rgba(197, 197, 197, 1)" stroke-width="1.5"></path><path d="M374.74 700.85L373.63 494.5" stroke="rgba(197, 197, 197, 1)" stroke-width="1.5"></path><path d="M374.74 700.85L545.01 562.06" stroke="rgba(197, 197, 197, 1)" stroke-width="1.5"></path><path d="M374.74 700.85L253.97 515.91" stroke="rgba(197, 197, 197, 1)" stroke-width="1.5"></path><path d="M374.74 700.85L88.68 668.78" stroke="rgba(197, 197, 197, 1)" stroke-width="1.5"></path><path d="M545.01 562.06L545.01 562.06" stroke="rgba(197, 197, 197, 1)" stroke-width="1.5"></path><path d="M545.01 562.06L528.05 704.43" stroke="rgba(197, 197, 197, 1)" stroke-width="1.5"></path><path d="M545.01 562.06L701.02 529.06" stroke="rgba(197, 197, 197, 1)" stroke-width="1.5"></path><path d="M545.01 562.06L648 392.81" stroke="rgba(197, 197, 197, 1)" stroke-width="1.5"></path><path d="M545.01 562.06L712.04 695.98" stroke="rgba(197, 197, 197, 1)" stroke-width="1.5"></path><path d="M528.05 704.43L528.05 704.43" stroke="rgba(197, 197, 197, 1)" stroke-width="1.5"></path><path d="M701.03 215.08L701.03 215.08" stroke="rgba(197, 197, 197, 1)" stroke-width="1.5"></path><path d="M701.03 215.08L802.93 206.26" stroke="rgba(197, 197, 197, 1)" stroke-width="1.5"></path><path d="M701.03 215.08L648 392.81" stroke="rgba(197, 197, 197, 1)" stroke-width="1.5"></path><path d="M701.03 215.08L855.28 110.85" stroke="rgba(197, 197, 197, 1)" stroke-width="1.5"></path><path d="M701.03 215.08L841.54 373.29" stroke="rgba(197, 197, 197, 1)" stroke-width="1.5"></path><path d="M701.03 215.08L949.21 219.35" stroke="rgba(197, 197, 197, 1)" stroke-width="1.5"></path><path d="M701.03 215.08L984.3 80.2" stroke="rgba(197, 197, 197, 1)" stroke-width="1.5"></path><path d="M648 392.81L648 392.81" stroke="rgba(197, 197, 197, 1)" stroke-width="1.5"></path><path d="M648 392.81L701.02 529.06" stroke="rgba(197, 197, 197, 1)" stroke-width="1.5"></path><path d="M648 392.81L841.54 373.29" stroke="rgba(197, 197, 197, 1)" stroke-width="1.5"></path><path d="M701.02 529.06L701.02 529.06" stroke="rgba(197, 197, 197, 1)" stroke-width="1.5"></path><path d="M701.02 529.06L819.81 534.94" stroke="rgba(197, 197, 197, 1)" stroke-width="1.5"></path><path d="M701.02 529.06L712.04 695.98" stroke="rgba(197, 197, 197, 1)" stroke-width="1.5"></path><path d="M712.04 695.98L712.04 695.98" stroke="rgba(197, 197, 197, 1)" stroke-width="1.5"></path><path d="M712.04 695.98L842.59 656.13" stroke="rgba(197, 197, 197, 1)" stroke-width="1.5"></path><path d="M712.04 695.98L528.05 704.43" stroke="rgba(197, 197, 197, 1)" stroke-width="1.5"></path><path d="M712.04 695.98L819.81 534.94" stroke="rgba(197, 197, 197, 1)" stroke-width="1.5"></path><path d="M855.28 110.85L855.28 110.85" stroke="rgba(197, 197, 197, 1)" stroke-width="1.5"></path><path d="M855.28 110.85L802.93 206.26" stroke="rgba(197, 197, 197, 1)" stroke-width="1.5"></path><path d="M855.28 110.85L984.3 80.2" stroke="rgba(197, 197, 197, 1)" stroke-width="1.5"></path><path d="M855.28 110.85L949.21 219.35" stroke="rgba(197, 197, 197, 1)" stroke-width="1.5"></path><path d="M802.93 206.26L802.93 206.26" stroke="rgba(197, 197, 197, 1)" stroke-width="1.5"></path><path d="M802.93 206.26L949.21 219.35" stroke="rgba(197, 197, 197, 1)" stroke-width="1.5"></path><path d="M802.93 206.26L841.54 373.29" stroke="rgba(197, 197, 197, 1)" stroke-width="1.5"></path><path d="M841.54 373.29L841.54 373.29" stroke="rgba(197, 197, 197, 1)" stroke-width="1.5"></path><path d="M841.54 373.29L991.38 388.97" stroke="rgba(197, 197, 197, 1)" stroke-width="1.5"></path><path d="M841.54 373.29L819.81 534.94" stroke="rgba(197, 197, 197, 1)" stroke-width="1.5"></path><path d="M819.81 534.94L819.81 534.94" stroke="rgba(197, 197, 197, 1)" stroke-width="1.5"></path><path d="M819.81 534.94L842.59 656.13" stroke="rgba(197, 197, 197, 1)" stroke-width="1.5"></path><path d="M819.81 534.94L967.28 513.53" stroke="rgba(197, 197, 197, 1)" stroke-width="1.5"></path><path d="M842.59 656.13L842.59 656.13" stroke="rgba(197, 197, 197, 1)" stroke-width="1.5"></path><path d="M951.29 -101.28L951.29 -101.28" stroke="rgba(197, 197, 197, 1)" stroke-width="1.5"></path><path d="M951.29 -101.28L984.3 80.2" stroke="rgba(197, 197, 197, 1)" stroke-width="1.5"></path><path d="M951.29 -101.28L1149.37 -78.05" stroke="rgba(197, 197, 197, 1)" stroke-width="1.5"></path><path d="M984.3 80.2L984.3 80.2" stroke="rgba(197, 197, 197, 1)" stroke-width="1.5"></path><path d="M984.3 80.2L1106.48 83.24" stroke="rgba(197, 197, 197, 1)" stroke-width="1.5"></path><path d="M984.3 80.2L949.21 219.35" stroke="rgba(197, 197, 197, 1)" stroke-width="1.5"></path><path d="M984.3 80.2L1114.89 254.7" stroke="rgba(197, 197, 197, 1)" stroke-width="1.5"></path><path d="M984.3 80.2L802.93 206.26" stroke="rgba(197, 197, 197, 1)" stroke-width="1.5"></path><path d="M949.21 219.35L949.21 219.35" stroke="rgba(197, 197, 197, 1)" stroke-width="1.5"></path><path d="M949.21 219.35L1114.89 254.7" stroke="rgba(197, 197, 197, 1)" stroke-width="1.5"></path><path d="M991.38 388.97L991.38 388.97" stroke="rgba(197, 197, 197, 1)" stroke-width="1.5"></path><path d="M991.38 388.97L1114.96 368.42" stroke="rgba(197, 197, 197, 1)" stroke-width="1.5"></path><path d="M991.38 388.97L967.28 513.53" stroke="rgba(197, 197, 197, 1)" stroke-width="1.5"></path><path d="M967.28 513.53L967.28 513.53" stroke="rgba(197, 197, 197, 1)" stroke-width="1.5"></path><path d="M997.25 688.49L997.25 688.49" stroke="rgba(197, 197, 197, 1)" stroke-width="1.5"></path><path d="M997.25 688.49L1145.46 696.72" stroke="rgba(197, 197, 197, 1)" stroke-width="1.5"></path><path d="M997.25 688.49L842.59 656.13" stroke="rgba(197, 197, 197, 1)" stroke-width="1.5"></path><path d="M997.25 688.49L967.28 513.53" stroke="rgba(197, 197, 197, 1)" stroke-width="1.5"></path><path d="M997.25 688.49L819.81 534.94" stroke="rgba(197, 197, 197, 1)" stroke-width="1.5"></path><path d="M997.25 688.49L712.04 695.98" stroke="rgba(197, 197, 197, 1)" stroke-width="1.5"></path><path d="M1149.37 -78.05L1149.37 -78.05" stroke="rgba(197, 197, 197, 1)" stroke-width="1.5"></path><path d="M1149.37 -78.05L1248.56 -61.36" stroke="rgba(197, 197, 197, 1)" stroke-width="1.5"></path><path d="M1149.37 -78.05L1106.48 83.24" stroke="rgba(197, 197, 197, 1)" stroke-width="1.5"></path><path d="M1106.48 83.24L1106.48 83.24" stroke="rgba(197, 197, 197, 1)" stroke-width="1.5"></path><path d="M1106.48 83.24L1114.89 254.7" stroke="rgba(197, 197, 197, 1)" stroke-width="1.5"></path><path d="M1114.89 254.7L1114.89 254.7" stroke="rgba(197, 197, 197, 1)" stroke-width="1.5"></path><path d="M1114.89 254.7L1114.96 368.42" stroke="rgba(197, 197, 197, 1)" stroke-width="1.5"></path><path d="M1114.96 368.42L1114.96 368.42" stroke="rgba(197, 197, 197, 1)" stroke-width="1.5"></path><path d="M1114.96 368.42L967.28 513.53" stroke="rgba(197, 197, 197, 1)" stroke-width="1.5"></path><path d="M1114.96 368.42L949.21 219.35" stroke="rgba(197, 197, 197, 1)" stroke-width="1.5"></path><path d="M1114.96 368.42L1248.9 549.82" stroke="rgba(197, 197, 197, 1)" stroke-width="1.5"></path><path d="M1145.46 696.72L1145.46 696.72" stroke="rgba(197, 197, 197, 1)" stroke-width="1.5"></path><path d="M1145.46 696.72L1283.14 664.58" stroke="rgba(197, 197, 197, 1)" stroke-width="1.5"></path><path d="M1248.56 -61.36L1248.56 -61.36" stroke="rgba(197, 197, 197, 1)" stroke-width="1.5"></path><path d="M1248.56 -61.36L1415.05 -39.17" stroke="rgba(197, 197, 197, 1)" stroke-width="1.5"></path><path d="M1248.56 -61.36L1106.48 83.24" stroke="rgba(197, 197, 197, 1)" stroke-width="1.5"></path><path d="M1248.56 -61.36L1458.33 65.6" stroke="rgba(197, 197, 197, 1)" stroke-width="1.5"></path><path d="M1248.9 549.82L1248.9 549.82" stroke="rgba(197, 197, 197, 1)" stroke-width="1.5"></path><path d="M1248.9 549.82L1283.14 664.58" stroke="rgba(197, 197, 197, 1)" stroke-width="1.5"></path><path d="M1248.9 549.82L1421.16 553.16" stroke="rgba(197, 197, 197, 1)" stroke-width="1.5"></path><path d="M1248.9 549.82L1145.46 696.72" stroke="rgba(197, 197, 197, 1)" stroke-width="1.5"></path><path d="M1283.14 664.58L1283.14 664.58" stroke="rgba(197, 197, 197, 1)" stroke-width="1.5"></path><path d="M1415.05 -39.17L1415.05 -39.17" stroke="rgba(197, 197, 197, 1)" stroke-width="1.5"></path><path d="M1415.05 -39.17L1458.33 65.6" stroke="rgba(197, 197, 197, 1)" stroke-width="1.5"></path><path d="M1415.05 -39.17L1587.33 -64.66" stroke="rgba(197, 197, 197, 1)" stroke-width="1.5"></path><path d="M1458.33 65.6L1458.33 65.6" stroke="rgba(197, 197, 197, 1)" stroke-width="1.5"></path><path d="M1458.33 65.6L1541.48 88.56" stroke="rgba(197, 197, 197, 1)" stroke-width="1.5"></path><path d="M1458.33 65.6L1426.79 221.57" stroke="rgba(197, 197, 197, 1)" stroke-width="1.5"></path><path d="M1426.79 221.57L1426.79 221.57" stroke="rgba(197, 197, 197, 1)" stroke-width="1.5"></path><path d="M1426.79 221.57L1560.35 244.04" stroke="rgba(197, 197, 197, 1)" stroke-width="1.5"></path><path d="M1426.79 221.57L1402.11 378.92" stroke="rgba(197, 197, 197, 1)" stroke-width="1.5"></path><path d="M1426.79 221.57L1541.48 88.56" stroke="rgba(197, 197, 197, 1)" stroke-width="1.5"></path><path d="M1402.11 378.92L1402.11 378.92" stroke="rgba(197, 197, 197, 1)" stroke-width="1.5"></path><path d="M1402.11 378.92L1421.16 553.16" stroke="rgba(197, 197, 197, 1)" stroke-width="1.5"></path><path d="M1402.11 378.92L1590.45 376.21" stroke="rgba(197, 197, 197, 1)" stroke-width="1.5"></path><path d="M1402.11 378.92L1560.35 244.04" stroke="rgba(197, 197, 197, 1)" stroke-width="1.5"></path><path d="M1402.11 378.92L1248.9 549.82" stroke="rgba(197, 197, 197, 1)" stroke-width="1.5"></path><path d="M1402.11 378.92L1582.1 531.71" stroke="rgba(197, 197, 197, 1)" stroke-width="1.5"></path><path d="M1421.16 553.16L1421.16 553.16" stroke="rgba(197, 197, 197, 1)" stroke-width="1.5"></path><path d="M1421.16 553.16L1582.1 531.71" stroke="rgba(197, 197, 197, 1)" stroke-width="1.5"></path><path d="M1421.16 553.16L1283.14 664.58" stroke="rgba(197, 197, 197, 1)" stroke-width="1.5"></path><path d="M1587.33 -64.66L1587.33 -64.66" stroke="rgba(197, 197, 197, 1)" stroke-width="1.5"></path><path d="M1587.33 -64.66L1541.48 88.56" stroke="rgba(197, 197, 197, 1)" stroke-width="1.5"></path><path d="M1587.33 -64.66L1458.33 65.6" stroke="rgba(197, 197, 197, 1)" stroke-width="1.5"></path><path d="M1587.33 -64.66L1560.35 244.04" stroke="rgba(197, 197, 197, 1)" stroke-width="1.5"></path><path d="M1541.48 88.56L1541.48 88.56" stroke="rgba(197, 197, 197, 1)" stroke-width="1.5"></path><path d="M1541.48 88.56L1560.35 244.04" stroke="rgba(197, 197, 197, 1)" stroke-width="1.5"></path><path d="M1560.35 244.04L1560.35 244.04" stroke="rgba(197, 197, 197, 1)" stroke-width="1.5"></path><path d="M1590.45 376.21L1590.45 376.21" stroke="rgba(197, 197, 197, 1)" stroke-width="1.5"></path><path d="M1590.45 376.21L1560.35 244.04" stroke="rgba(197, 197, 197, 1)" stroke-width="1.5"></path><path d="M1590.45 376.21L1582.1 531.71" stroke="rgba(197, 197, 197, 1)" stroke-width="1.5"></path><path d="M1582.1 531.71L1582.1 531.71" stroke="rgba(197, 197, 197, 1)" stroke-width="1.5"></path><path d="M1582.1 531.71L1612.37 665.1" stroke="rgba(197, 197, 197, 1)" stroke-width="1.5"></path><path d="M1612.37 665.1L1612.37 665.1" stroke="rgba(197, 197, 197, 1)" stroke-width="1.5"></path><path d="M1612.37 665.1L1421.16 553.16" stroke="rgba(197, 197, 197, 1)" stroke-width="1.5"></path><path d="M1612.37 665.1L1590.45 376.21" stroke="rgba(197, 197, 197, 1)" stroke-width="1.5"></path><path d="M1612.37 665.1L1283.14 664.58" stroke="rgba(197, 197, 197, 1)" stroke-width="1.5"></path><path d="M1612.37 665.1L1402.11 378.92" stroke="rgba(197, 197, 197, 1)" stroke-width="1.5"></path><path d="M1612.37 665.1L1248.9 549.82" stroke="rgba(197, 197, 197, 1)" stroke-width="1.5"></path><circle r="5" cx="-52.46" cy="346.52" fill="rgba(197, 197, 197, 1)"></circle><circle r="5" cx="-111.64" cy="492.13" fill="rgba(197, 197, 197, 1)"></circle><circle r="5" cx="-53.43" cy="686.33" fill="rgba(197, 197, 197, 1)"></circle><circle r="5" cx="72.85" cy="407.49" fill="rgba(197, 197, 197, 1)"></circle><circle r="5" cx="67.01" cy="552.83" fill="rgba(197, 197, 197, 1)"></circle><circle r="5" cx="88.68" cy="668.78" fill="rgba(197, 197, 197, 1)"></circle><circle r="5" cx="249.63" cy="342.48" fill="rgba(197, 197, 197, 1)"></circle><circle r="5" cx="253.97" cy="515.91" fill="rgba(197, 197, 197, 1)"></circle><circle r="5" cx="208.39" cy="708.07" fill="rgba(197, 197, 197, 1)"></circle><circle r="5" cx="342.82" cy="375.07" fill="rgba(197, 197, 197, 1)"></circle><circle r="5" cx="373.63" cy="494.5" fill="rgba(197, 197, 197, 1)"></circle><circle r="5" cx="374.74" cy="700.85" fill="rgba(197, 197, 197, 1)"></circle><circle r="5" cx="545.01" cy="562.06" fill="rgba(197, 197, 197, 1)"></circle><circle r="5" cx="528.05" cy="704.43" fill="rgba(197, 197, 197, 1)"></circle><circle r="5" cx="701.03" cy="215.08" fill="rgba(197, 197, 197, 1)"></circle><circle r="5" cx="648" cy="392.81" fill="rgba(197, 197, 197, 1)"></circle><circle r="5" cx="701.02" cy="529.06" fill="rgba(197, 197, 197, 1)"></circle><circle r="5" cx="712.04" cy="695.98" fill="rgba(197, 197, 197, 1)"></circle><circle r="5" cx="855.28" cy="110.85" fill="rgba(197, 197, 197, 1)"></circle><circle r="5" cx="802.93" cy="206.26" fill="rgba(197, 197, 197, 1)"></circle><circle r="5" cx="841.54" cy="373.29" fill="rgba(197, 197, 197, 1)"></circle><circle r="5" cx="819.81" cy="534.94" fill="rgba(197, 197, 197, 1)"></circle><circle r="5" cx="842.59" cy="656.13" fill="rgba(197, 197, 197, 1)"></circle><circle r="5" cx="951.29" cy="-101.28" fill="rgba(197, 197, 197, 1)"></circle><circle r="5" cx="984.3" cy="80.2" fill="rgba(197, 197, 197, 1)"></circle><circle r="5" cx="949.21" cy="219.35" fill="rgba(197, 197, 197, 1)"></circle><circle r="5" cx="991.38" cy="388.97" fill="rgba(197, 197, 197, 1)"></circle><circle r="5" cx="967.28" cy="513.53" fill="rgba(197, 197, 197, 1)"></circle><circle r="5" cx="997.25" cy="688.49" fill="rgba(197, 197, 197, 1)"></circle><circle r="5" cx="1149.37" cy="-78.05" fill="rgba(197, 197, 197, 1)"></circle><circle r="5" cx="1106.48" cy="83.24" fill="rgba(197, 197, 197, 1)"></circle><circle r="5" cx="1114.89" cy="254.7" fill="rgba(197, 197, 197, 1)"></circle><circle r="5" cx="1114.96" cy="368.42" fill="rgba(197, 197, 197, 1)"></circle><circle r="5" cx="1145.46" cy="696.72" fill="rgba(197, 197, 197, 1)"></circle><circle r="5" cx="1248.56" cy="-61.36" fill="rgba(197, 197, 197, 1)"></circle><circle r="5" cx="1248.9" cy="549.82" fill="rgba(197, 197, 197, 1)"></circle><circle r="5" cx="1283.14" cy="664.58" fill="rgba(197, 197, 197, 1)"></circle><circle r="5" cx="1415.05" cy="-39.17" fill="rgba(197, 197, 197, 1)"></circle><circle r="5" cx="1458.33" cy="65.6" fill="rgba(197, 197, 197, 1)"></circle><circle r="5" cx="1426.79" cy="221.57" fill="rgba(197, 197, 197, 1)"></circle><circle r="5" cx="1402.11" cy="378.92" fill="rgba(197, 197, 197, 1)"></circle><circle r="5" cx="1421.16" cy="553.16" fill="rgba(197, 197, 197, 1)"></circle><circle r="5" cx="1587.33" cy="-64.66" fill="rgba(197, 197, 197, 1)"></circle><circle r="5" cx="1541.48" cy="88.56" fill="rgba(197, 197, 197, 1)"></circle><circle r="5" cx="1560.35" cy="244.04" fill="rgba(197, 197, 197, 1)"></circle><circle r="5" cx="1590.45" cy="376.21" fill="rgba(197, 197, 197, 1)"></circle><circle r="5" cx="1582.1" cy="531.71" fill="rgba(197, 197, 197, 1)"></circle><circle r="5" cx="1612.37" cy="665.1" fill="rgba(197, 197, 197, 1)"></circle><path d="M-82.48 531.98L-82.48 531.98" stroke="hsl(231.39999999999998, 7.2%, 100%)" stroke-width="1.5"></path><path d="M-82.48 531.98L-44.63 651.97" stroke="hsl(231.39999999999998, 7.2%, 100%)" stroke-width="1.5"></path><path d="M-82.48 531.98L106.74 511.38" stroke="hsl(231.39999999999998, 7.2%, 100%)" stroke-width="1.5"></path><path d="M-82.48 531.98L66.25 693.76" stroke="hsl(231.39999999999998, 7.2%, 100%)" stroke-width="1.5"></path><path d="M-82.48 531.98L211.79 493.92" stroke="hsl(231.39999999999998, 7.2%, 100%)" stroke-width="1.5"></path><path d="M106.74 511.38L106.74 511.38" stroke="hsl(231.39999999999998, 7.2%, 100%)" stroke-width="1.5"></path><path d="M106.74 511.38L211.79 493.92" stroke="hsl(231.39999999999998, 7.2%, 100%)" stroke-width="1.5"></path><path d="M106.74 511.38L66.25 693.76" stroke="hsl(231.39999999999998, 7.2%, 100%)" stroke-width="1.5"></path><path d="M106.74 511.38L-44.63 651.97" stroke="hsl(231.39999999999998, 7.2%, 100%)" stroke-width="1.5"></path><path d="M106.74 511.38L206.38 703.21" stroke="hsl(231.39999999999998, 7.2%, 100%)" stroke-width="1.5"></path><path d="M106.74 511.38L371.62 495.66" stroke="hsl(231.39999999999998, 7.2%, 100%)" stroke-width="1.5"></path><path d="M827.47 700.28L827.47 700.28" stroke="hsl(231.39999999999998, 7.2%, 100%)" stroke-width="1.5"></path><path d="M827.47 700.28L959.61 709.97" stroke="hsl(231.39999999999998, 7.2%, 100%)" stroke-width="1.5"></path><path d="M827.47 700.28L661.42 706.18" stroke="hsl(231.39999999999998, 7.2%, 100%)" stroke-width="1.5"></path><path d="M827.47 700.28L846.23 502.17" stroke="hsl(231.39999999999998, 7.2%, 100%)" stroke-width="1.5"></path><path d="M827.47 700.28L698.88 489.23" stroke="hsl(231.39999999999998, 7.2%, 100%)" stroke-width="1.5"></path><path d="M827.47 700.28L1118.34 651.36" stroke="hsl(231.39999999999998, 7.2%, 100%)" stroke-width="1.5"></path><path d="M1161.96 260.34L1161.96 260.34" stroke="hsl(231.39999999999998, 7.2%, 100%)" stroke-width="1.5"></path><path d="M1161.96 260.34L1245.7 246.18" stroke="hsl(231.39999999999998, 7.2%, 100%)" stroke-width="1.5"></path><path d="M1161.96 260.34L1092.1 406.99" stroke="hsl(231.39999999999998, 7.2%, 100%)" stroke-width="1.5"></path><path d="M1161.96 260.34L1296.68 377.97" stroke="hsl(231.39999999999998, 7.2%, 100%)" stroke-width="1.5"></path><path d="M1161.96 260.34L996.64 346.85" stroke="hsl(231.39999999999998, 7.2%, 100%)" stroke-width="1.5"></path><path d="M1118.34 651.36L1118.34 651.36" stroke="hsl(231.39999999999998, 7.2%, 100%)" stroke-width="1.5"></path><path d="M1118.34 651.36L1090.51 507.74" stroke="hsl(231.39999999999998, 7.2%, 100%)" stroke-width="1.5"></path><path d="M1296.68 377.97L1296.68 377.97" stroke="hsl(231.39999999999998, 7.2%, 100%)" stroke-width="1.5"></path><path d="M1296.68 377.97L1287.87 514.26" stroke="hsl(231.39999999999998, 7.2%, 100%)" stroke-width="1.5"></path><path d="M1296.68 377.97L1245.7 246.18" stroke="hsl(231.39999999999998, 7.2%, 100%)" stroke-width="1.5"></path><path d="M1296.68 377.97L1395.85 488.67" stroke="hsl(231.39999999999998, 7.2%, 100%)" stroke-width="1.5"></path><path d="M1286.44 649.92L1286.44 649.92" stroke="hsl(231.39999999999998, 7.2%, 100%)" stroke-width="1.5"></path><path d="M1286.44 649.92L1287.87 514.26" stroke="hsl(231.39999999999998, 7.2%, 100%)" stroke-width="1.5"></path><path d="M1286.44 649.92L1417.16 695.36" stroke="hsl(231.39999999999998, 7.2%, 100%)" stroke-width="1.5"></path><path d="M1286.44 649.92L1118.34 651.36" stroke="hsl(231.39999999999998, 7.2%, 100%)" stroke-width="1.5"></path><path d="M1607.82 559.92L1607.82 559.92" stroke="hsl(231.39999999999998, 7.2%, 100%)" stroke-width="1.5"></path><path d="M1607.82 559.92L1611.91 662.1" stroke="hsl(231.39999999999998, 7.2%, 100%)" stroke-width="1.5"></path><path d="M1607.82 559.92L1585.47 412.32" stroke="hsl(231.39999999999998, 7.2%, 100%)" stroke-width="1.5"></path><path d="M1607.82 559.92L1395.85 488.67" stroke="hsl(231.39999999999998, 7.2%, 100%)" stroke-width="1.5"></path><path d="M-44.63 651.97L-44.63 651.97" stroke="hsl(231.39999999999998, 7.2%, 100%)" stroke-width="1.5"></path><path d="M-44.63 651.97L66.25 693.76" stroke="hsl(231.39999999999998, 7.2%, 100%)" stroke-width="1.5"></path><path d="M-44.63 651.97L206.38 703.21" stroke="hsl(231.39999999999998, 7.2%, 100%)" stroke-width="1.5"></path><path d="M-44.63 651.97L211.79 493.92" stroke="hsl(231.39999999999998, 7.2%, 100%)" stroke-width="1.5"></path><path d="M-44.63 651.97L371.62 495.66" stroke="hsl(231.39999999999998, 7.2%, 100%)" stroke-width="1.5"></path><path d="M66.25 693.76L66.25 693.76" stroke="hsl(231.39999999999998, 7.2%, 100%)" stroke-width="1.5"></path><path d="M66.25 693.76L206.38 703.21" stroke="hsl(231.39999999999998, 7.2%, 100%)" stroke-width="1.5"></path><path d="M211.79 493.92L211.79 493.92" stroke="hsl(231.39999999999998, 7.2%, 100%)" stroke-width="1.5"></path><path d="M211.79 493.92L371.62 495.66" stroke="hsl(231.39999999999998, 7.2%, 100%)" stroke-width="1.5"></path><path d="M206.38 703.21L206.38 703.21" stroke="hsl(231.39999999999998, 7.2%, 100%)" stroke-width="1.5"></path><path d="M206.38 703.21L401.05 671.75" stroke="hsl(231.39999999999998, 7.2%, 100%)" stroke-width="1.5"></path><path d="M371.62 495.66L371.62 495.66" stroke="hsl(231.39999999999998, 7.2%, 100%)" stroke-width="1.5"></path><path d="M371.62 495.66L540.91 494.19" stroke="hsl(231.39999999999998, 7.2%, 100%)" stroke-width="1.5"></path><path d="M371.62 495.66L401.05 671.75" stroke="hsl(231.39999999999998, 7.2%, 100%)" stroke-width="1.5"></path><path d="M371.62 495.66L206.38 703.21" stroke="hsl(231.39999999999998, 7.2%, 100%)" stroke-width="1.5"></path><path d="M401.05 671.75L401.05 671.75" stroke="hsl(231.39999999999998, 7.2%, 100%)" stroke-width="1.5"></path><path d="M401.05 671.75L540.91 494.19" stroke="hsl(231.39999999999998, 7.2%, 100%)" stroke-width="1.5"></path><path d="M401.05 671.75L211.79 493.92" stroke="hsl(231.39999999999998, 7.2%, 100%)" stroke-width="1.5"></path><path d="M540.91 494.19L540.91 494.19" stroke="hsl(231.39999999999998, 7.2%, 100%)" stroke-width="1.5"></path><path d="M540.91 494.19L698.88 489.23" stroke="hsl(231.39999999999998, 7.2%, 100%)" stroke-width="1.5"></path><path d="M540.91 494.19L697.27 376.32" stroke="hsl(231.39999999999998, 7.2%, 100%)" stroke-width="1.5"></path><path d="M540.91 494.19L661.42 706.18" stroke="hsl(231.39999999999998, 7.2%, 100%)" stroke-width="1.5"></path><path d="M697.27 376.32L697.27 376.32" stroke="hsl(231.39999999999998, 7.2%, 100%)" stroke-width="1.5"></path><path d="M697.27 376.32L698.88 489.23" stroke="hsl(231.39999999999998, 7.2%, 100%)" stroke-width="1.5"></path><path d="M697.27 376.32L829.49 401.11" stroke="hsl(231.39999999999998, 7.2%, 100%)" stroke-width="1.5"></path><path d="M698.88 489.23L698.88 489.23" stroke="hsl(231.39999999999998, 7.2%, 100%)" stroke-width="1.5"></path><path d="M698.88 489.23L846.23 502.17" stroke="hsl(231.39999999999998, 7.2%, 100%)" stroke-width="1.5"></path><path d="M661.42 706.18L661.42 706.18" stroke="hsl(231.39999999999998, 7.2%, 100%)" stroke-width="1.5"></path><path d="M661.42 706.18L698.88 489.23" stroke="hsl(231.39999999999998, 7.2%, 100%)" stroke-width="1.5"></path><path d="M829.49 401.11L829.49 401.11" stroke="hsl(231.39999999999998, 7.2%, 100%)" stroke-width="1.5"></path><path d="M829.49 401.11L846.23 502.17" stroke="hsl(231.39999999999998, 7.2%, 100%)" stroke-width="1.5"></path><path d="M829.49 401.11L698.88 489.23" stroke="hsl(231.39999999999998, 7.2%, 100%)" stroke-width="1.5"></path><path d="M846.23 502.17L846.23 502.17" stroke="hsl(231.39999999999998, 7.2%, 100%)" stroke-width="1.5"></path><path d="M846.23 502.17L697.27 376.32" stroke="hsl(231.39999999999998, 7.2%, 100%)" stroke-width="1.5"></path><path d="M846.23 502.17L996.64 346.85" stroke="hsl(231.39999999999998, 7.2%, 100%)" stroke-width="1.5"></path><path d="M996.64 346.85L996.64 346.85" stroke="hsl(231.39999999999998, 7.2%, 100%)" stroke-width="1.5"></path><path d="M996.64 346.85L1092.1 406.99" stroke="hsl(231.39999999999998, 7.2%, 100%)" stroke-width="1.5"></path><path d="M996.64 346.85L829.49 401.11" stroke="hsl(231.39999999999998, 7.2%, 100%)" stroke-width="1.5"></path><path d="M996.64 346.85L1090.51 507.74" stroke="hsl(231.39999999999998, 7.2%, 100%)" stroke-width="1.5"></path><path d="M959.61 709.97L959.61 709.97" stroke="hsl(231.39999999999998, 7.2%, 100%)" stroke-width="1.5"></path><path d="M959.61 709.97L1118.34 651.36" stroke="hsl(231.39999999999998, 7.2%, 100%)" stroke-width="1.5"></path><path d="M959.61 709.97L846.23 502.17" stroke="hsl(231.39999999999998, 7.2%, 100%)" stroke-width="1.5"></path><path d="M959.61 709.97L1090.51 507.74" stroke="hsl(231.39999999999998, 7.2%, 100%)" stroke-width="1.5"></path><path d="M959.61 709.97L661.42 706.18" stroke="hsl(231.39999999999998, 7.2%, 100%)" stroke-width="1.5"></path><path d="M959.61 709.97L1092.1 406.99" stroke="hsl(231.39999999999998, 7.2%, 100%)" stroke-width="1.5"></path><path d="M1092.1 406.99L1092.1 406.99" stroke="hsl(231.39999999999998, 7.2%, 100%)" stroke-width="1.5"></path><path d="M1092.1 406.99L1090.51 507.74" stroke="hsl(231.39999999999998, 7.2%, 100%)" stroke-width="1.5"></path><path d="M1090.51 507.74L1090.51 507.74" stroke="hsl(231.39999999999998, 7.2%, 100%)" stroke-width="1.5"></path><path d="M1090.51 507.74L1287.87 514.26" stroke="hsl(231.39999999999998, 7.2%, 100%)" stroke-width="1.5"></path><path d="M1251.18 -72.19L1251.18 -72.19" stroke="hsl(231.39999999999998, 7.2%, 100%)" stroke-width="1.5"></path><path d="M1251.18 -72.19L1270.36 69.55" stroke="hsl(231.39999999999998, 7.2%, 100%)" stroke-width="1.5"></path><path d="M1251.18 -72.19L1448.93 -59.99" stroke="hsl(231.39999999999998, 7.2%, 100%)" stroke-width="1.5"></path><path d="M1251.18 -72.19L1409.3 80.89" stroke="hsl(231.39999999999998, 7.2%, 100%)" stroke-width="1.5"></path><path d="M1270.36 69.55L1270.36 69.55" stroke="hsl(231.39999999999998, 7.2%, 100%)" stroke-width="1.5"></path><path d="M1270.36 69.55L1409.3 80.89" stroke="hsl(231.39999999999998, 7.2%, 100%)" stroke-width="1.5"></path><path d="M1270.36 69.55L1245.7 246.18" stroke="hsl(231.39999999999998, 7.2%, 100%)" stroke-width="1.5"></path><path d="M1270.36 69.55L1161.96 260.34" stroke="hsl(231.39999999999998, 7.2%, 100%)" stroke-width="1.5"></path><path d="M1245.7 246.18L1245.7 246.18" stroke="hsl(231.39999999999998, 7.2%, 100%)" stroke-width="1.5"></path><path d="M1245.7 246.18L1456.22 200.3" stroke="hsl(231.39999999999998, 7.2%, 100%)" stroke-width="1.5"></path><path d="M1287.87 514.26L1287.87 514.26" stroke="hsl(231.39999999999998, 7.2%, 100%)" stroke-width="1.5"></path><path d="M1287.87 514.26L1395.85 488.67" stroke="hsl(231.39999999999998, 7.2%, 100%)" stroke-width="1.5"></path><path d="M1448.93 -59.99L1448.93 -59.99" stroke="hsl(231.39999999999998, 7.2%, 100%)" stroke-width="1.5"></path><path d="M1448.93 -59.99L1409.3 80.89" stroke="hsl(231.39999999999998, 7.2%, 100%)" stroke-width="1.5"></path><path d="M1409.3 80.89L1409.3 80.89" stroke="hsl(231.39999999999998, 7.2%, 100%)" stroke-width="1.5"></path><path d="M1409.3 80.89L1456.22 200.3" stroke="hsl(231.39999999999998, 7.2%, 100%)" stroke-width="1.5"></path><path d="M1409.3 80.89L1584.04 107.98" stroke="hsl(231.39999999999998, 7.2%, 100%)" stroke-width="1.5"></path><path d="M1409.3 80.89L1543.04 243.98" stroke="hsl(231.39999999999998, 7.2%, 100%)" stroke-width="1.5"></path><path d="M1456.22 200.3L1456.22 200.3" stroke="hsl(231.39999999999998, 7.2%, 100%)" stroke-width="1.5"></path><path d="M1456.22 200.3L1543.04 243.98" stroke="hsl(231.39999999999998, 7.2%, 100%)" stroke-width="1.5"></path><path d="M1456.22 200.3L1584.04 107.98" stroke="hsl(231.39999999999998, 7.2%, 100%)" stroke-width="1.5"></path><path d="M1456.22 200.3L1270.36 69.55" stroke="hsl(231.39999999999998, 7.2%, 100%)" stroke-width="1.5"></path><path d="M1456.22 200.3L1296.68 377.97" stroke="hsl(231.39999999999998, 7.2%, 100%)" stroke-width="1.5"></path><path d="M1395.85 488.67L1395.85 488.67" stroke="hsl(231.39999999999998, 7.2%, 100%)" stroke-width="1.5"></path><path d="M1395.85 488.67L1286.44 649.92" stroke="hsl(231.39999999999998, 7.2%, 100%)" stroke-width="1.5"></path><path d="M1395.85 488.67L1585.47 412.32" stroke="hsl(231.39999999999998, 7.2%, 100%)" stroke-width="1.5"></path><path d="M1417.16 695.36L1417.16 695.36" stroke="hsl(231.39999999999998, 7.2%, 100%)" stroke-width="1.5"></path><path d="M1417.16 695.36L1611.91 662.1" stroke="hsl(231.39999999999998, 7.2%, 100%)" stroke-width="1.5"></path><path d="M1584.04 107.98L1584.04 107.98" stroke="hsl(231.39999999999998, 7.2%, 100%)" stroke-width="1.5"></path><path d="M1584.04 107.98L1543.04 243.98" stroke="hsl(231.39999999999998, 7.2%, 100%)" stroke-width="1.5"></path><path d="M1543.04 243.98L1543.04 243.98" stroke="hsl(231.39999999999998, 7.2%, 100%)" stroke-width="1.5"></path><path d="M1585.47 412.32L1585.47 412.32" stroke="hsl(231.39999999999998, 7.2%, 100%)" stroke-width="1.5"></path><path d="M1585.47 412.32L1543.04 243.98" stroke="hsl(231.39999999999998, 7.2%, 100%)" stroke-width="1.5"></path><path d="M1611.91 662.1L1611.91 662.1" stroke="hsl(231.39999999999998, 7.2%, 100%)" stroke-width="1.5"></path><path d="M1611.91 662.1L1585.47 412.32" stroke="hsl(231.39999999999998, 7.2%, 100%)" stroke-width="1.5"></path><path d="M1611.91 662.1L1395.85 488.67" stroke="hsl(231.39999999999998, 7.2%, 100%)" stroke-width="1.5"></path><path d="M1611.91 662.1L1286.44 649.92" stroke="hsl(231.39999999999998, 7.2%, 100%)" stroke-width="1.5"></path><path d="M1611.91 662.1L1287.87 514.26" stroke="hsl(231.39999999999998, 7.2%, 100%)" stroke-width="1.5"></path><circle r="25" cx="-82.48" cy="531.98" fill="url(&quot;#SvgjsRadialGradient1450&quot;)"></circle><circle r="25" cx="106.74" cy="511.38" fill="url(&quot;#SvgjsRadialGradient1450&quot;)"></circle><circle r="25" cx="827.47" cy="700.28" fill="url(&quot;#SvgjsRadialGradient1450&quot;)"></circle><circle r="25" cx="1161.96" cy="260.34" fill="url(&quot;#SvgjsRadialGradient1450&quot;)"></circle><circle r="25" cx="1118.34" cy="651.36" fill="url(&quot;#SvgjsRadialGradient1450&quot;)"></circle><circle r="25" cx="1296.68" cy="377.97" fill="url(&quot;#SvgjsRadialGradient1450&quot;)"></circle><circle r="25" cx="1286.44" cy="649.92" fill="url(&quot;#SvgjsRadialGradient1450&quot;)"></circle><circle r="25" cx="1607.82" cy="559.92" fill="url(&quot;#SvgjsRadialGradient1450&quot;)"></circle><circle r="5" cx="-44.63" cy="651.97" fill="#e5e6e9"></circle><circle r="5" cx="66.25" cy="693.76" fill="#e5e6e9"></circle><circle r="5" cx="211.79" cy="493.92" fill="#e5e6e9"></circle><circle r="5" cx="206.38" cy="703.21" fill="#e5e6e9"></circle><circle r="5" cx="371.62" cy="495.66" fill="#e5e6e9"></circle><circle r="5" cx="401.05" cy="671.75" fill="#e5e6e9"></circle><circle r="5" cx="540.91" cy="494.19" fill="#e5e6e9"></circle><circle r="5" cx="697.27" cy="376.32" fill="#e5e6e9"></circle><circle r="5" cx="698.88" cy="489.23" fill="#e5e6e9"></circle><circle r="5" cx="661.42" cy="706.18" fill="#e5e6e9"></circle><circle r="5" cx="829.49" cy="401.11" fill="#e5e6e9"></circle><circle r="5" cx="846.23" cy="502.17" fill="#e5e6e9"></circle><circle r="5" cx="996.64" cy="346.85" fill="#e5e6e9"></circle><circle r="5" cx="959.61" cy="709.97" fill="#e5e6e9"></circle><circle r="5" cx="1092.1" cy="406.99" fill="#e5e6e9"></circle><circle r="5" cx="1090.51" cy="507.74" fill="#e5e6e9"></circle><circle r="5" cx="1251.18" cy="-72.19" fill="#e5e6e9"></circle><circle r="5" cx="1270.36" cy="69.55" fill="#e5e6e9"></circle><circle r="5" cx="1245.7" cy="246.18" fill="#e5e6e9"></circle><circle r="5" cx="1287.87" cy="514.26" fill="#e5e6e9"></circle><circle r="5" cx="1448.93" cy="-59.99" fill="#e5e6e9"></circle><circle r="5" cx="1409.3" cy="80.89" fill="#e5e6e9"></circle><circle r="5" cx="1456.22" cy="200.3" fill="#e5e6e9"></circle><circle r="5" cx="1395.85" cy="488.67" fill="#e5e6e9"></circle><circle r="5" cx="1417.16" cy="695.36" fill="#e5e6e9"></circle><circle r="5" cx="1584.04" cy="107.98" fill="#e5e6e9"></circle><circle r="5" cx="1543.04" cy="243.98" fill="#e5e6e9"></circle><circle r="5" cx="1585.47" cy="412.32" fill="#e5e6e9"></circle><circle r="5" cx="1611.91" cy="662.1" fill="#e5e6e9"></circle></g><defs><mask id="SvgjsMask1448"><rect width="1440" height="560" fill="#ffffff"></rect></mask><linearGradient x1="0%" y1="50%" x2="100%" y2="50%" gradientUnits="userSpaceOnUse" id="SvgjsLinearGradient1449"><stop stop-color="rgba(240, 240, 240, 1)" offset="0"></stop><stop stop-color="rgba(255, 255, 255, 1)" offset="1"></stop></linearGradient><radialGradient id="SvgjsRadialGradient1450"><stop stop-color="#ffffff" offset="0.1"></stop><stop stop-color="rgba(203, 204, 210, 1)" offset="0.2"></stop><stop stop-color="rgba(203, 204, 210, 0)" offset="1"></stop></radialGradient></defs></svg>